<?xml version="1.0" encoding="UTF-8" standalone="no"?>
<!-- Created with Inkscape (http://www.inkscape.org/) -->

<svg
   xmlns:dc="http://purl.org/dc/elements/1.1/"
   xmlns:cc="http://creativecommons.org/ns#"
   xmlns:rdf="http://www.w3.org/1999/02/22-rdf-syntax-ns#"
   xmlns:svg="http://www.w3.org/2000/svg"
   xmlns="http://www.w3.org/2000/svg"
   xmlns:sodipodi="http://sodipodi.sourceforge.net/DTD/sodipodi-0.dtd"
   xmlns:inkscape="http://www.inkscape.org/namespaces/inkscape"
   width="744.09448819"
   height="1052.3622047"
   id="svg3021"
   version="1.1"
   inkscape:version="0.48.4 r9939"
   sodipodi:docname="last_full.svg">
  <defs
     id="defs3023" />
  <sodipodi:namedview
     id="base"
     pagecolor="#ffffff"
     bordercolor="#666666"
     borderopacity="1.0"
     inkscape:pageopacity="0.0"
     inkscape:pageshadow="2"
     inkscape:zoom="0.83457278"
     inkscape:cx="748.57143"
     inkscape:cy="641.16571"
     inkscape:document-units="px"
     inkscape:current-layer="layer1"
     showgrid="false"
     inkscape:window-width="1920"
     inkscape:window-height="1141"
     inkscape:window-x="0"
     inkscape:window-y="27"
     inkscape:window-maximized="1" />
  <metadata
     id="metadata3026">
    <rdf:RDF>
      <cc:Work
         rdf:about="">
        <dc:format>image/svg+xml</dc:format>
        <dc:type
           rdf:resource="http://purl.org/dc/dcmitype/StillImage" />
        <dc:title></dc:title>
      </cc:Work>
    </rdf:RDF>
  </metadata>
  <g
     inkscape:label="Layer 1"
     inkscape:groupmode="layer"
     id="layer1">
    <g
       id="g3045"
       transform="matrix(0.35139033,0,0,-0.35139033,64.683767,732.96629)">
      <path
         id="path3047"
         d="m 1792,640 c 0,-17 -7,-33 -19,-45 L 1517,339 c -12,-12 -28,-19 -45,-19 -35,0 -64,29 -64,64 l 0,128 -512,0 -512,0 0,-128 c 0,-35 -29,-64 -64,-64 -17,0 -33,7 -45,19 L 19,595 C 7,607 0,623 0,640 c 0,17 7,33 19,45 l 256,256 c 12,12 28,19 45,19 35,0 64,-29 64,-64 l 0,-128 512,0 512,0 0,128 c 0,35 29,64 64,64 17,0 33,-7 45,-19 l 256,-256 c 12,-12 19,-28 19,-45 z"
         inkscape:connector-curvature="0"
         style="fill:currentColor"
         sodipodi:nodetypes="ssssscccssssssssscccsssss" />
    </g>
    <rect
       style="fill:#0000ff;fill-rule:evenodd;stroke:#000000;stroke-width:0.34550694px;stroke-linecap:butt;stroke-linejoin:miter;stroke-opacity:1"
       id="rect3129"
       width="57.865612"
       height="409.22595"
       x="989.84619"
       y="303.4635" />
    <path
       transform="matrix(1.4014759,0,0,1.4014759,-272.04659,-212.78998)"
       sodipodi:type="arc"
       style="fill:#ff0000;fill-rule:evenodd;stroke:#000000;stroke-width:1px;stroke-linecap:butt;stroke-linejoin:miter;stroke-opacity:1"
       id="path3178-7"
       sodipodi:cx="733.30933"
       sodipodi:cy="514.36237"
       sodipodi:rx="26.360792"
       sodipodi:ry="26.360792"
       d="m 759.67012,514.36237 a 26.360792,26.360792 0 1 1 -52.72159,0 26.360792,26.360792 0 1 1 52.72159,0 z" />
    <path
       transform="matrix(1.4014759,0,0,1.4014759,-187.36894,-212.78998)"
       sodipodi:type="arc"
       style="fill:#ff0000;fill-rule:evenodd;stroke:#000000;stroke-width:1px;stroke-linecap:butt;stroke-linejoin:miter;stroke-opacity:1"
       id="path3178-7-8"
       sodipodi:cx="733.30933"
       sodipodi:cy="514.36237"
       sodipodi:rx="26.360792"
       sodipodi:ry="26.360792"
       d="m 759.67012,514.36237 a 26.360792,26.360792 0 1 1 -52.72159,0 26.360792,26.360792 0 1 1 52.72159,0 z" />
    <path
       transform="matrix(1.4014759,0,0,1.4014759,-102.69118,-212.78998)"
       sodipodi:type="arc"
       style="fill:#ff0000;fill-rule:evenodd;stroke:#000000;stroke-width:1px;stroke-linecap:butt;stroke-linejoin:miter;stroke-opacity:1"
       id="path3178-7-8-2"
       sodipodi:cx="733.30933"
       sodipodi:cy="514.36237"
       sodipodi:rx="26.360792"
       sodipodi:ry="26.360792"
       d="m 759.67012,514.36237 a 26.360792,26.360792 0 1 1 -52.72159,0 26.360792,26.360792 0 1 1 52.72159,0 z" />
  </g>
</svg>
